
<svg xmlns="http://www.w3.org/2000/svg">
  <symbol id="anchor" viewBox="0 0 576 512">
    <path d="M12.971 352h32.394C67.172 454.735 181.944 512 288 512c106.229 0 220.853-57.38 242.635-160h32.394c10.691 0 16.045-12.926 8.485-20.485l-67.029-67.029c-4.686-4.686-12.284-4.686-16.971 0l-67.029 67.029c-7.56 7.56-2.206 20.485 8.485 20.485h35.146c-20.29 54.317-84.963 86.588-144.117 94.015V256h52c6.627 0 12-5.373 12-12v-40c0-6.627-5.373-12-12-12h-52v-5.47c37.281-13.178 63.995-48.725 64-90.518C384.005 43.772 341.605.738 289.37.01 235.723-.739 192 42.525 192 96c0 41.798 26.716 77.35 64 90.53V192h-52c-6.627 0-12 5.373-12 12v40c0 6.627 5.373 12 12 12h52v190.015c-58.936-7.399-123.82-39.679-144.117-94.015h35.146c10.691 0 16.045-12.926 8.485-20.485l-67.029-67.029c-4.686-4.686-12.284-4.686-16.971 0L4.485 331.515C-3.074 339.074 2.28 352 12.971 352zM288 64c17.645 0 32 14.355 32 32s-14.355 32-32 32-32-14.355-32-32 14.355-32 32-32z"></path>
  </symbol>
  <symbol id="arrow" viewBox="0 0 448 512">
    <path d="M295.515 115.716l-19.626 19.626c-4.753 4.753-4.675 12.484.173 17.14L356.78 230H12c-6.627 0-12 5.373-12 12v28c0 6.627 5.373 12 12 12h344.78l-80.717 77.518c-4.849 4.656-4.927 12.387-.173 17.14l19.626 19.626c4.686 4.686 12.284 4.686 16.971 0l131.799-131.799c4.686-4.686 4.686-12.284 0-16.971L312.485 115.716c-4.686-4.686-12.284-4.686-16.97 0z"></path>
  </symbol>
  <symbol id="codepen" viewBox="0 0 512 512">
    <path d="M502.285 159.704l-234-156c-7.987-4.915-16.511-4.96-24.571 0l-234 156C3.714 163.703 0 170.847 0 177.989v155.999c0 7.143 3.714 14.286 9.715 18.286l234 156.022c7.987 4.915 16.511 4.96 24.571 0l234-156.022c6-3.999 9.715-11.143 9.715-18.286V177.989c-.001-7.142-3.715-14.286-9.716-18.285zM278 63.131l172.286 114.858-76.857 51.429L278 165.703V63.131zm-44 0v102.572l-95.429 63.715-76.857-51.429L234 63.131zM44 219.132l55.143 36.857L44 292.846v-73.714zm190 229.715L61.714 333.989l76.857-51.429L234 346.275v102.572zm22-140.858l-77.715-52 77.715-52 77.715 52-77.715 52zm22 140.858V346.275l95.429-63.715 76.857 51.429L278 448.847zm190-156.001l-55.143-36.857L468 219.132v73.714z"></path>
  </symbol>
  <symbol id="deprecated" viewBox="0 0 576 512">
    <path d="M248.747 204.705l6.588 112c.373 6.343 5.626 11.295 11.979 11.295h41.37a12 12 0 0 0 11.979-11.295l6.588-112c.405-6.893-5.075-12.705-11.979-12.705h-54.547c-6.903 0-12.383 5.812-11.978 12.705zM330 384c0 23.196-18.804 42-42 42s-42-18.804-42-42 18.804-42 42-42 42 18.804 42 42zm-.423-360.015c-18.433-31.951-64.687-32.009-83.154 0L6.477 440.013C-11.945 471.946 11.118 512 48.054 512H527.94c36.865 0 60.035-39.993 41.577-71.987L329.577 23.985zM53.191 455.002L282.803 57.008c2.309-4.002 8.085-4.002 10.394 0l229.612 397.993c2.308 4-.579 8.998-5.197 8.998H58.388c-4.617.001-7.504-4.997-5.197-8.997z"></path>
  </symbol>
  <symbol id="email" viewBox="0 0 512 512">
    <path d="M464 64H48C21.49 64 0 85.49 0 112v288c0 26.51 21.49 48 48 48h416c26.51 0 48-21.49 48-48V112c0-26.51-21.49-48-48-48zm0 48v40.805c-22.422 18.259-58.168 46.651-134.587 106.49-16.841 13.247-50.201 45.072-73.413 44.701-23.208.375-56.579-31.459-73.413-44.701C106.18 199.465 70.425 171.067 48 152.805V112h416zM48 400V214.398c22.914 18.251 55.409 43.862 104.938 82.646 21.857 17.205 60.134 55.186 103.062 54.955 42.717.231 80.509-37.199 103.053-54.947 49.528-38.783 82.032-64.401 104.947-82.653V400H48z"></path>
  </symbol>
  <symbol id="fish" viewBox="0 0 576 512">
    <path d="M327.1 96c-89.97 0-168.54 54.77-212.27 101.63L27.5 131.58c-12.13-9.18-30.24.6-27.14 14.66L24.54 256 .35 365.77c-3.1 14.06 15.01 23.83 27.14 14.66l87.33-66.05C158.55 361.23 237.13 416 327.1 416 464.56 416 576 288 576 256S464.56 96 327.1 96zm87.43 184c-13.25 0-24-10.75-24-24 0-13.26 10.75-24 24-24 13.26 0 24 10.74 24 24 0 13.25-10.75 24-24 24z"></path>
  </symbol>
  <symbol id="github" viewBox="0 0 496 512">
    <path d="M165.9 397.4c0 2-2.3 3.6-5.2 3.6-3.3.3-5.6-1.3-5.6-3.6 0-2 2.3-3.6 5.2-3.6 3-.3 5.6 1.3 5.6 3.6zm-31.1-4.5c-.7 2 1.3 4.3 4.3 4.9 2.6 1 5.6 0 6.2-2s-1.3-4.3-4.3-5.2c-2.6-.7-5.5.3-6.2 2.3zm44.2-1.7c-2.9.7-4.9 2.6-4.6 4.9.3 2 2.9 3.3 5.9 2.6 2.9-.7 4.9-2.6 4.6-4.6-.3-1.9-3-3.2-5.9-2.9zM244.8 8C106.1 8 0 113.3 0 252c0 110.9 69.8 205.8 169.5 239.2 12.8 2.3 17.3-5.6 17.3-12.1 0-6.2-.3-40.4-.3-61.4 0 0-70 15-84.7-29.8 0 0-11.4-29.1-27.8-36.6 0 0-22.9-15.7 1.6-15.4 0 0 24.9 2 38.6 25.8 21.9 38.6 58.6 27.5 72.9 20.9 2.3-16 8.8-27.1 16-33.7-55.9-6.2-112.3-14.3-112.3-110.5 0-27.5 7.6-41.3 23.6-58.9-2.6-6.5-11.1-33.3 2.6-67.9 20.9-6.5 69 27 69 27 20-5.6 41.5-8.5 62.8-8.5s42.8 2.9 62.8 8.5c0 0 48.1-33.6 69-27 13.7 34.7 5.2 61.4 2.6 67.9 16 17.7 25.8 31.5 25.8 58.9 0 96.5-58.9 104.2-114.8 110.5 9.2 7.9 17 22.9 17 46.4 0 33.7-.3 75.4-.3 83.6 0 6.5 4.6 14.4 17.3 12.1C428.2 457.8 496 362.9 496 252 496 113.3 383.5 8 244.8 8zM97.2 352.9c-1.3 1-1 3.3.7 5.2 1.6 1.6 3.9 2.3 5.2 1 1.3-1 1-3.3-.7-5.2-1.6-1.6-3.9-2.3-5.2-1zm-10.8-8.1c-.7 1.3.3 2.9 2.3 3.9 1.6 1 3.6.7 4.3-.7.7-1.3-.3-2.9-2.3-3.9-2-.6-3.6-.3-4.3.7zm32.4 35.6c-1.6 1.3-1 4.3 1.3 6.2 2.3 2.3 5.2 2.6 6.5 1 1.3-1.3.7-4.3-1.3-6.2-2.2-2.3-5.2-2.6-6.5-1zm-11.4-14.7c-1.6 1-1.6 3.6 0 5.9 1.6 2.3 4.3 3.3 5.6 2.3 1.6-1.3 1.6-3.9 0-6.2-1.4-2.3-4-3.3-5.6-2z"></path>
  </symbol>
  <svg id="link" viewBox="0 0 512 512">
    <path d="M314.222 197.78c51.091 51.091 54.377 132.287 9.75 187.16-6.242 7.73-2.784 3.865-84.94 86.02-54.696 54.696-143.266 54.745-197.99 0-54.711-54.69-54.734-143.255 0-197.99 32.773-32.773 51.835-51.899 63.409-63.457 7.463-7.452 20.331-2.354 20.486 8.192a173.31 173.31 0 0 0 4.746 37.828c.966 4.029-.272 8.269-3.202 11.198L80.632 312.57c-32.755 32.775-32.887 85.892 0 118.8 32.775 32.755 85.892 32.887 118.8 0l75.19-75.2c32.718-32.725 32.777-86.013 0-118.79a83.722 83.722 0 0 0-22.814-16.229c-4.623-2.233-7.182-7.25-6.561-12.346 1.356-11.122 6.296-21.885 14.815-30.405l4.375-4.375c3.625-3.626 9.177-4.594 13.76-2.294 12.999 6.524 25.187 15.211 36.025 26.049zM470.958 41.04c-54.724-54.745-143.294-54.696-197.99 0-82.156 82.156-78.698 78.29-84.94 86.02-44.627 54.873-41.341 136.069 9.75 187.16 10.838 10.838 23.026 19.525 36.025 26.049 4.582 2.3 10.134 1.331 13.76-2.294l4.375-4.375c8.52-8.519 13.459-19.283 14.815-30.405.621-5.096-1.938-10.113-6.561-12.346a83.706 83.706 0 0 1-22.814-16.229c-32.777-32.777-32.718-86.065 0-118.79l75.19-75.2c32.908-32.887 86.025-32.755 118.8 0 32.887 32.908 32.755 86.025 0 118.8l-45.848 45.84c-2.93 2.929-4.168 7.169-3.202 11.198a173.31 173.31 0 0 1 4.746 37.828c.155 10.546 13.023 15.644 20.486 8.192 11.574-11.558 30.636-30.684 63.409-63.457 54.733-54.735 54.71-143.3-.001-197.991z"></path>
  </svg>
  <symbol id="linkedin" viewBox="0 0 448 512">
    <path d="M100.28 448H7.4V148.9h92.88zM53.79 108.1C24.09 108.1 0 83.5 0 53.8a53.79 53.79 0 0 1 107.58 0c0 29.7-24.1 54.3-53.79 54.3zM447.9 448h-92.68V302.4c0-34.7-.7-79.2-48.29-79.2-48.29 0-55.69 37.7-55.69 76.7V448h-92.78V148.9h89.08v40.8h1.3c12.4-23.5 42.69-48.3 87.88-48.3 94 0 111.28 61.9 111.28 142.3V448z"></path>
  </symbol>
  <symbol id="rss" viewBox="0 0 448 512">
    <path d="M128.081 415.959c0 35.369-28.672 64.041-64.041 64.041S0 451.328 0 415.959s28.672-64.041 64.041-64.041 64.04 28.673 64.04 64.041zm175.66 47.25c-8.354-154.6-132.185-278.587-286.95-286.95C7.656 175.765 0 183.105 0 192.253v48.069c0 8.415 6.49 15.472 14.887 16.018 111.832 7.284 201.473 96.702 208.772 208.772.547 8.397 7.604 14.887 16.018 14.887h48.069c9.149.001 16.489-7.655 15.995-16.79zm144.249.288C439.596 229.677 251.465 40.445 16.503 32.01 7.473 31.686 0 38.981 0 48.016v48.068c0 8.625 6.835 15.645 15.453 15.999 191.179 7.839 344.627 161.316 352.465 352.465.353 8.618 7.373 15.453 15.999 15.453h48.068c9.034-.001 16.329-7.474 16.005-16.504z"></path>
  </symbol>
  <symbol id="star" viewBox="0 0 576 512">
    <path d="M259.3 17.8L194 150.2 47.9 171.5c-26.2 3.8-36.7 36.1-17.7 54.6l105.7 103-25 145.5c-4.5 26.3 23.2 46 46.4 33.7L288 439.6l130.7 68.7c23.2 12.2 50.9-7.4 46.4-33.7l-25-145.5 105.7-103c19-18.5 8.5-50.8-17.7-54.6L382 150.2 316.7 17.8c-11.7-23.6-45.6-23.9-57.4 0z"></path>
  </symbol>
  <symbol id="stars" viewBox="0 0 512 512">
    <path d="M259.69042,85.96457l49.64549,20.69969,20.70353,49.643a6.65746,6.65746,0,0,0,11.926,0L362.667,106.66426l49.64549-20.69969a6.66574,6.66574,0,0,0,0-11.92493L362.667,53.338,341.96545,3.697a6.65746,6.65746,0,0,0-11.926,0L309.33591,53.338,259.69042,74.03964a6.66574,6.66574,0,0,0,0,11.92493ZM364.294,267.29343,259.4951,251.99764l-46.90716-95.19633c-8.39078-16.99879-32.68813-17.2019-41.18829,0l-46.90716,95.19633L19.69358,267.29343C.89634,269.99636-6.71318,293.19783,6.99021,306.49376l75.90772,73.99472L64.89758,485.07476c-3.20319,18.9049,16.68782,33.107,33.29752,24.2014l93.7987-49.3871,93.79869,49.3871A22.95361,22.95361,0,0,0,319.09,485.07476L301.199,380.48848l75.89209-73.99472C390.70077,293.19783,383.09125,269.99636,364.294,267.29343ZM509.05268,219.2285,469.339,202.67109,452.7801,162.961a5.32691,5.32691,0,0,0-9.5412,0L426.678,202.67109l-39.7117,16.55741a5.33385,5.33385,0,0,0,0,9.54033L426.678,245.3282l16.56087,39.7081a5.32534,5.32534,0,0,0,9.5412,0L469.339,245.3282l39.71366-16.55937a5.33386,5.33386,0,0,0,0-9.54033Z"></path>
  </symbol>
  <symbol id="twitter" viewBox="0 0 512 512">
    <path d="M459.37 151.716c.325 4.548.325 9.097.325 13.645 0 138.72-105.583 298.558-298.558 298.558-59.452 0-114.68-17.219-161.137-47.106 8.447.974 16.568 1.299 25.34 1.299 49.055 0 94.213-16.568 130.274-44.832-46.132-.975-84.792-31.188-98.112-72.772 6.498.974 12.995 1.624 19.818 1.624 9.421 0 18.843-1.3 27.614-3.573-48.081-9.747-84.143-51.98-84.143-102.985v-1.299c13.969 7.797 30.214 12.67 47.431 13.319-28.264-18.843-46.781-51.005-46.781-87.391 0-19.492 5.197-37.36 14.294-52.954 51.655 63.675 129.3 105.258 216.365 109.807-1.624-7.797-2.599-15.918-2.599-24.04 0-57.828 46.782-104.934 104.934-104.934 30.213 0 57.502 12.67 76.67 33.137 23.715-4.548 46.456-13.32 66.599-25.34-7.798 24.366-24.366 44.833-46.132 57.827 21.117-2.273 41.584-8.122 60.426-16.243-14.292 20.791-32.161 39.308-52.628 54.253z"></path>
  </symbol>
</svg>
