<?xml version="1.0" standalone="no"?>
<!DOCTYPE svg PUBLIC "-//W3C//DTD SVG 20010904//EN"
 "http://www.w3.org/TR/2001/REC-SVG-20010904/DTD/svg10.dtd">
<svg version="1.0" xmlns="http://www.w3.org/2000/svg"
 width="600.000000pt" height="600.000000pt" viewBox="0 0 600.000000 600.000000"
 preserveAspectRatio="xMidYMid meet">
<metadata>
Created by potrace 1.11, written by Peter Selinger 2001-2013
</metadata>
<g transform="translate(0.000000,600.000000) scale(0.100000,-0.100000)"
fill="#000000" stroke="none">
<path d="M0 5989 c0 -5 5 -7 10 -4 5 3 10 8 10 11 0 2 -4 4 -10 4 -5 0 -10 -5
-10 -11z"/>
<path d="M3315 5668 c-38 -5 -79 -13 -90 -18 -43 -19 -93 -30 -108 -24 -9 3
-24 -3 -36 -15 -11 -11 -37 -23 -57 -27 -20 -4 -49 -13 -63 -20 -14 -8 -30
-14 -35 -14 -8 0 -124 -63 -210 -115 -22 -13 -44 -21 -51 -19 -6 3 -18 -2 -25
-11 -10 -12 -10 -15 1 -15 10 -1 8 -5 -5 -15 -10 -8 -23 -12 -29 -8 -6 3 -7 1
-3 -5 8 -13 -29 -26 -67 -24 -15 2 -35 -4 -43 -13 -18 -18 -2 -20 29 -3 19 10
20 9 10 -4 -7 -8 -38 -21 -68 -28 -31 -7 -55 -19 -55 -26 0 -7 -10 -14 -22
-16 -13 -2 -22 -9 -21 -16 4 -16 -31 -50 -60 -57 -13 -4 -29 -20 -37 -38 -7
-18 -16 -36 -18 -42 -3 -5 3 -3 14 5 17 14 18 14 6 -2 -8 -10 -18 -16 -23 -15
-4 1 -32 -29 -62 -68 -38 -49 -60 -69 -73 -67 -16 2 -16 1 -4 -7 12 -9 12 -11
-3 -17 -9 -3 -17 -14 -17 -23 0 -10 -12 -24 -27 -32 -16 -8 -31 -17 -34 -22
-3 -4 -16 -9 -28 -12 -12 -2 -32 -7 -43 -11 -18 -5 -20 -3 -14 20 5 20 3 24
-9 20 -18 -7 -18 -6 -6 -37 8 -21 5 -28 -22 -48 -42 -32 -74 -48 -103 -53 -13
-3 -33 -8 -44 -11 -17 -5 -20 -2 -20 25 0 18 -4 29 -10 25 -6 -4 -10 -18 -9
-33 1 -15 -2 -36 -6 -46 -6 -14 -5 -17 3 -12 7 4 12 3 12 -2 0 -13 -29 -24
-42 -15 -7 4 -8 1 -4 -6 5 -7 14 -10 22 -7 7 3 15 2 18 -3 3 -4 -29 -33 -70
-65 -41 -33 -74 -62 -74 -67 0 -4 -9 -10 -19 -14 -10 -3 -21 -15 -24 -26 -5
-19 -4 -19 18 -5 31 20 35 20 35 -1 0 -9 -3 -14 -6 -10 -4 3 -13 0 -21 -8 -8
-8 -27 -13 -44 -11 -25 3 -32 -1 -40 -23 -6 -14 -16 -30 -22 -36 -26 -21 -87
-108 -86 -124 0 -10 2 -12 6 -3 2 6 9 10 14 6 5 -3 9 0 9 5 0 21 3 26 28 56
29 34 68 45 51 14 -5 -11 -13 -19 -18 -19 -4 0 -18 -22 -31 -50 -13 -27 -27
-50 -32 -50 -4 0 -8 -8 -9 -17 0 -11 -3 -13 -6 -5 -2 6 -9 9 -14 6 -6 -3 -5
-12 3 -22 11 -13 10 -15 -10 -9 -13 3 -21 3 -18 0 3 -3 -1 -21 -9 -40 -8 -18
-10 -31 -5 -28 6 3 10 -1 10 -10 0 -9 -4 -14 -9 -11 -11 7 -20 -27 -22 -74 0
-33 -1 -33 -11 -12 -6 12 -15 22 -20 22 -5 0 -7 -4 -3 -10 3 -5 6 -38 7 -74 1
-41 5 -64 12 -63 12 2 19 -87 9 -113 -11 -27 -13 -125 -3 -110 11 17 13 7 13
-70 0 -110 -1 -113 -28 -108 -14 3 -28 1 -31 -3 -3 -5 6 -9 20 -9 26 0 35 -14
16 -25 -5 -3 -10 -11 -10 -16 0 -6 5 -7 10 -4 6 4 10 -5 8 -24 -1 -17 -6 -31
-11 -31 -4 0 -6 -4 -3 -8 2 -4 -15 -20 -40 -36 -24 -15 -44 -30 -44 -33 0 -2
14 -1 32 2 32 7 32 7 16 -16 -8 -13 -24 -24 -34 -25 -11 0 -27 -4 -36 -8 -9
-4 -22 -9 -30 -10 -7 -2 -20 -6 -28 -9 -35 -13 -60 -15 -60 -4 0 7 -7 4 -14
-6 -14 -18 -14 -17 -21 2 -8 27 -25 27 -20 1 5 -24 -23 -40 -35 -20 -6 10 -8
10 -12 0 -3 -9 -9 -8 -21 4 -9 10 -17 12 -17 6 0 -6 7 -13 15 -16 8 -4 15 -14
15 -24 0 -21 -34 -32 -49 -17 -6 6 -11 7 -11 1 0 -5 -4 -3 -9 5 -8 12 -16 7
-45 -22 -34 -35 -35 -40 -35 -106 1 -62 5 -75 35 -123 19 -29 39 -52 44 -51 5
2 21 -12 34 -30 14 -18 45 -43 69 -55 44 -22 104 -93 93 -110 -3 -5 8 -19 24
-31 34 -24 37 -36 14 -45 -8 -3 -12 -2 -9 4 3 5 -1 7 -9 4 -8 -3 -18 -14 -21
-24 -3 -10 -12 -21 -20 -24 -8 -3 -15 -12 -15 -20 0 -17 70 -32 80 -17 4 8 12
7 24 -2 23 -17 25 -107 3 -160 -15 -34 -19 -37 -56 -37 -25 0 -41 -5 -41 -12
0 -22 52 -88 70 -88 9 0 26 -11 39 -24 17 -18 36 -24 89 -29 102 -8 163 -44
178 -102 3 -14 10 -23 14 -20 4 2 25 -10 46 -29 39 -33 106 -56 164 -56 24 0
43 -12 85 -55 39 -39 63 -55 82 -55 32 0 100 47 168 118 51 52 69 64 59 38 -3
-8 0 -17 5 -21 6 -3 9 -11 6 -16 -4 -5 -1 -9 5 -9 6 0 9 -4 6 -8 -2 -4 15 -7
40 -6 24 1 41 -2 38 -7 -3 -5 -12 -9 -20 -9 -8 0 -14 -4 -14 -9 0 -12 43 -1
52 13 4 6 21 12 38 12 66 3 69 4 64 18 -3 8 -12 12 -20 9 -8 -3 -14 0 -14 7 0
6 -4 8 -10 5 -5 -3 -10 -2 -10 4 0 5 4 12 10 16 5 3 7 11 4 18 -2 7 8 18 23
25 l28 12 -27 -4 c-19 -2 -28 1 -28 10 0 8 5 14 11 14 6 0 9 7 6 14 -4 10 -1
13 9 9 7 -3 14 -10 15 -17 0 -6 4 -1 10 12 5 13 13 20 19 17 5 -3 10 -1 10 4
0 6 6 11 13 11 8 0 22 9 32 20 16 18 20 19 27 5 5 -8 14 -15 19 -15 6 0 7 4 4
10 -3 5 0 7 8 4 9 -3 16 3 19 14 3 11 24 28 47 38 32 14 41 23 38 36 -3 10 -1
16 3 13 5 -3 17 8 26 25 10 16 22 30 26 30 4 0 8 5 8 12 0 6 -3 8 -7 5 -3 -4
-12 5 -20 19 -10 20 -10 30 -2 40 15 18 68 44 89 44 10 0 20 6 23 13 6 16 111
30 157 20 29 -5 30 -8 24 -37 -6 -30 -26 -83 -45 -118 -12 -23 -12 -25 7 -32
10 -4 18 3 26 24 8 24 16 30 39 30 21 0 27 4 23 15 -4 8 -12 15 -20 15 -8 0
-14 10 -14 21 0 16 5 20 19 16 13 -3 18 0 16 12 -1 9 3 20 9 24 7 6 4 7 -6 3
-12 -3 -18 0 -18 9 0 8 -7 15 -16 15 -9 0 -14 7 -12 18 2 10 12 17 26 16 25
-1 26 0 12 27 -6 10 -18 19 -27 19 -13 0 -14 3 -5 12 19 19 42 18 42 -2 0 -10
5 -20 11 -22 5 -2 11 -10 12 -18 2 -8 6 -21 10 -27 5 -7 5 -19 1 -25 -4 -7 -4
-10 0 -7 4 4 22 -9 40 -27 34 -34 56 -43 56 -23 0 5 -3 8 -7 6 -5 -2 -19 8
-33 21 -14 14 -20 22 -13 19 12 -8 12 10 0 31 -5 6 -5 18 0 25 10 16 11 57 1
57 -4 0 -8 11 -8 25 0 30 28 101 36 92 3 -3 0 -18 -8 -34 -12 -24 -12 -35 0
-78 8 -27 21 -57 28 -66 8 -8 14 -21 14 -27 0 -7 5 -12 10 -12 7 0 7 -7 0 -21
-7 -11 -9 -23 -5 -27 8 -8 98 17 106 30 4 7 9 7 13 -1 12 -19 26 -12 26 12 0
29 29 68 36 50 8 -19 111 -17 122 2 9 18 114 38 149 28 17 -4 24 -2 23 8 -5
30 1 46 15 46 9 0 15 -10 15 -26 0 -21 2 -23 10 -11 6 9 10 10 10 3 0 -6 3
-20 7 -30 6 -15 4 -16 -9 -5 -13 11 -16 9 -20 -13 -3 -14 -2 -25 1 -25 4 0 12
-12 19 -27 l12 -28 -6 30 c-7 35 -3 33 25 -18 12 -21 19 -42 16 -47 -9 -14 69
-86 126 -117 58 -31 65 -44 34 -67 -25 -19 -12 -20 51 -2 27 8 105 26 174 41
147 30 209 49 268 81 44 25 132 34 132 14 0 -5 21 -10 46 -10 30 0 43 4 38 11
-4 8 11 10 50 7 31 -1 56 0 56 3 0 8 50 23 67 20 23 -3 33 33 36 126 1 37 20
49 47 30 16 -11 17 -16 6 -38 -7 -14 -19 -23 -29 -21 -19 3 -21 -6 -8 -27 8
-12 12 -13 26 -1 16 13 55 91 70 140 7 22 6 23 -8 11 -14 -11 -19 -11 -32 2
-10 11 -12 18 -4 23 8 5 8 8 0 13 -7 5 -2 12 14 21 14 7 25 17 25 21 0 5 15 6
33 3 30 -4 30 -4 7 6 -13 6 -35 8 -47 5 -17 -4 -23 -1 -23 10 0 12 6 15 23 10
17 -5 19 -4 7 4 -13 9 -13 13 -1 33 10 16 10 23 2 26 -6 2 -11 10 -11 18 0 9
4 13 9 10 9 -6 -4 68 -15 86 -3 4 4 8 15 8 14 0 19 5 15 15 -4 8 -11 12 -17 8
-6 -3 -7 -1 -3 6 4 6 -2 36 -13 67 l-21 55 33 -25 33 -25 -4 34 c-6 46 4 71
21 56 10 -8 17 -7 25 1 14 14 16 64 3 72 -4 3 -6 -7 -3 -22 4 -27 4 -27 -26 8
-17 19 -38 50 -47 68 -9 18 -22 35 -29 38 -7 3 -13 10 -13 17 0 7 -18 41 -39
77 -32 52 -39 74 -39 115 0 32 -5 55 -15 65 -20 19 -25 83 -10 120 17 42 8 58
-17 33 -25 -25 -33 -14 -25 35 3 23 9 32 21 30 9 -1 18 2 21 7 3 6 -7 11 -22
13 -23 3 -28 8 -28 31 0 20 6 30 20 34 20 5 29 37 10 37 -13 0 -13 27 0 32 6
2 6 19 -1 46 -5 24 -7 47 -4 53 4 5 3 9 -2 9 -14 0 -13 58 1 85 l13 26 17 -36
c10 -20 23 -38 29 -41 7 -2 12 -22 12 -44 0 -22 6 -45 14 -52 11 -11 12 2 8
77 -5 76 -10 99 -37 148 -30 54 -32 66 -35 175 -2 64 -9 158 -15 207 -6 50
-15 140 -20 201 -11 137 -36 221 -100 337 -28 50 -50 93 -50 97 0 16 -147 160
-175 171 -17 6 -24 13 -17 16 22 8 2 23 -31 23 -25 0 -37 7 -49 28 -30 50
-171 167 -238 198 -19 8 -62 28 -95 44 -33 15 -82 31 -110 35 -27 3 -61 9 -75
12 -20 4 -22 2 -10 -6 9 -7 10 -11 3 -11 -6 0 -15 5 -18 10 -8 12 -215 11
-320 -2z m109 -850 c3 6 0 12 -6 15 -7 2 6 4 29 3 26 -1 50 -9 65 -22 13 -11
29 -19 36 -16 7 2 12 -1 12 -7 0 -6 -10 -12 -22 -12 -17 -1 -18 -3 -6 -6 9 -2
27 1 39 7 15 8 19 9 15 1 -4 -6 0 -11 11 -11 15 0 16 -2 3 -10 -13 -8 -12 -10
3 -10 9 0 17 -5 17 -11 0 -5 5 -7 12 -3 7 4 8 3 4 -4 -4 -7 -2 -20 3 -29 6
-10 11 -14 11 -9 0 5 10 1 22 -10 l22 -19 -23 39 c-15 26 -17 35 -7 27 15 -12
20 -8 17 12 -1 4 8 3 19 -3 23 -12 24 -16 8 -26 -7 -4 -8 -3 -4 4 4 7 2 12 -3
12 -6 0 -11 -4 -11 -8 0 -11 43 -46 61 -50 8 -1 4 5 -8 15 -18 15 -19 20 -8
30 10 10 14 9 19 -3 3 -8 11 -12 17 -9 6 4 9 0 7 -11 -2 -11 3 -19 12 -19 9 0
14 -8 12 -18 -2 -9 2 -16 9 -15 8 2 13 -18 15 -64 2 -38 -1 -68 -7 -68 -5 0
-9 8 -9 18 0 14 -2 15 -10 2 -8 -12 -10 -9 -10 13 0 16 3 26 8 24 4 -3 7 8 8
24 1 15 -3 26 -7 23 -5 -3 -9 -14 -9 -25 0 -11 -4 -18 -9 -14 -5 3 -17 -2 -25
-11 -9 -8 -16 -12 -16 -8 0 3 -7 1 -16 -7 -11 -9 -18 -10 -22 -2 -4 6 -13 13
-21 15 -16 4 -24 -31 -11 -48 14 -16 -62 -98 -93 -99 -23 -2 -24 1 -16 21 6
17 5 23 -4 21 -14 -2 -11 41 5 60 7 9 2 20 -17 37 -19 17 -26 32 -22 46 3 12
1 18 -5 14 -5 -3 -12 3 -15 15 -3 12 -12 21 -20 21 -8 0 -11 5 -8 10 3 6 2 10
-3 10 -17 0 -53 42 -48 57 3 8 2 11 -3 8 -5 -3 -12 4 -16 15 -4 11 -11 18 -16
15 -5 -4 -9 0 -9 9 0 8 6 16 13 19 9 3 9 10 -2 28 -14 24 -14 24 7 6 12 -11
23 -14 26 -9z m-74 2 c0 -5 -2 -10 -4 -10 -3 0 -8 5 -11 10 -3 6 -1 10 4 10 6
0 11 -4 11 -10z m35 -10 c3 -5 -1 -10 -9 -10 -9 0 -16 5 -16 10 0 6 4 10 9 10
6 0 13 -4 16 -10z m-186 -76 c6 4 11 2 11 -4 0 -17 -33 -8 -37 10 -4 12 -3 13
5 1 5 -7 15 -10 21 -7z m54 -18 c9 -7 17 -16 17 -20 0 -12 41 -47 50 -41 5 3
14 -3 19 -14 9 -16 8 -18 -11 -13 -20 5 -108 84 -108 96 0 10 14 6 33 -8z
m-1394 -25 c9 -6 10 -11 2 -15 -13 -8 -31 1 -31 15 0 11 11 11 29 0z m1596
-20 c3 -5 2 -12 -3 -15 -5 -3 -9 1 -9 9 0 17 3 19 12 6z m-1728 -97 c-3 -3
-12 -4 -19 -1 -8 3 -5 6 6 6 11 1 17 -2 13 -5z m-107 -69 c-7 -8 -17 -15 -23
-15 -5 0 -2 9 8 20 21 23 35 19 15 -5z m1359 -4 c-3 -6 -10 -7 -18 -2 -7 5
-10 14 -6 21 9 14 29 -2 24 -19z m231 -41 c0 -16 -19 -30 -41 -30 -12 0 -11
27 2 51 8 16 13 18 25 8 8 -6 14 -19 14 -29z m586 -8 c-2 -15 -18 -43 -35 -61
-27 -29 -33 -32 -49 -20 -9 7 -19 15 -21 16 -6 4 21 33 31 33 5 0 6 -5 2 -12
-5 -7 -3 -8 7 -3 17 10 36 36 37 49 0 7 21 25 29 26 1 0 0 -13 -1 -28z m-430
-19 c-10 -10 -19 5 -10 18 6 11 8 11 12 0 2 -7 1 -15 -2 -18z m580 -35 c-4 6
-3 12 2 12 5 0 12 -8 14 -18 4 -16 0 -19 -28 -18 -19 1 -34 6 -34 13 0 17 23
22 39 9 11 -8 13 -8 7 2z m-70 -34 c-9 -8 -16 -19 -16 -24 0 -5 -7 -7 -15 -4
-13 5 -12 10 6 25 27 23 47 26 25 3z m173 -30 c2 -2 -7 -4 -22 -4 -14 0 -29 5
-32 10 -6 10 42 4 54 -6z m-139 -106 c0 -42 -14 -52 -46 -34 -16 8 -23 15 -16
16 6 0 12 6 12 14 0 14 14 24 38 25 6 1 12 -9 12 -21z m210 -52 c6 -8 10 -25
8 -38 -2 -19 -10 -24 -43 -26 -38 -3 -39 -3 -22 15 13 15 14 22 4 33 -10 10
-9 12 6 7 11 -4 17 -1 17 8 0 19 14 19 30 1z m-957 -73 c9 -9 -23 -44 -34 -37
-5 3 -4 14 1 25 11 20 22 24 33 12z m-275 -15 c-2 -7 3 -12 11 -10 7 2 22 -5
33 -15 23 -20 46 -59 30 -49 -6 3 -13 2 -17 -4 -4 -6 -11 -7 -17 -4 -7 5 -8 2
-4 -5 5 -7 0 -19 -10 -27 -11 -9 -14 -13 -7 -10 6 4 14 2 18 -3 3 -6 -5 -8
-19 -5 -17 3 -25 -1 -29 -16 -6 -23 -27 -27 -27 -6 0 8 -5 18 -12 22 -6 4 -8
3 -4 -4 3 -6 2 -13 -4 -17 -5 -3 -10 1 -10 10 0 9 -7 23 -15 31 -18 18 -21
104 -4 104 6 0 9 -7 5 -15 -3 -8 -1 -15 4 -15 6 0 10 6 10 14 0 9 7 12 20 9
12 -3 22 1 26 11 7 19 25 22 22 4z m577 -78 c4 -6 10 -8 14 -5 13 7 30 -40 21
-55 -5 -8 -6 -18 -3 -23 3 -5 -1 -13 -8 -18 -20 -13 -29 -11 -29 6 0 8 -7 15
-16 15 -9 0 -12 -5 -8 -12 5 -7 3 -8 -5 -4 -7 5 -10 10 -7 13 3 3 -6 17 -20
31 -35 38 -27 48 48 61 4 0 10 -4 13 -9z m-160 -20 c-26 -11 -75 -13 -75 -2 0
5 21 9 48 10 35 1 42 -1 27 -8z m-235 -41 c0 -5 -12 -14 -27 -20 -15 -6 -31
-16 -35 -22 -6 -9 -8 -9 -8 1 0 19 38 53 44 39 2 -7 5 -4 5 6 1 18 21 14 21
-4z m531 -29 c27 -24 31 -32 21 -42 -10 -10 -15 -10 -22 2 -5 8 -6 19 -2 25 3
5 -2 4 -11 -4 -23 -18 -42 -9 -45 23 -3 35 18 34 59 -4z m-367 -31 c14 -7 23
-15 21 -20 -3 -4 -19 -1 -35 8 -47 23 -34 34 14 12z m516 -9 c0 -5 -2 -10 -4
-10 -3 0 -8 5 -11 10 -3 6 -1 10 4 10 6 0 11 -4 11 -10z m-57 -43 c23 -26 22
-42 -3 -44 -12 -1 -20 4 -20 13 0 9 5 12 12 8 7 -4 8 -3 4 4 -4 6 -14 8 -24 5
-9 -3 -14 -2 -10 2 5 5 -1 15 -12 22 -11 8 -18 19 -15 24 8 11 44 -7 68 -34z
m-358 -17 c-7 -23 -25 -27 -25 -6 0 7 -7 20 -16 27 -15 12 -14 14 7 20 28 6
43 -12 34 -41z m455 30 c6 -11 15 -18 21 -15 14 9 50 -5 43 -17 -4 -6 -10 -5
-15 3 -5 8 -9 10 -9 4 0 -5 5 -17 10 -25 6 -9 10 -11 10 -3 0 8 7 10 17 6 11
-4 13 -8 5 -11 -8 -2 -4 -11 10 -24 13 -11 17 -16 9 -12 -10 5 -12 3 -7 -5 6
-9 11 -9 22 0 8 6 17 9 21 5 3 -3 1 -6 -5 -6 -7 0 -12 -4 -12 -10 0 -5 6 -7
14 -4 9 3 19 -4 26 -16 10 -18 9 -21 -2 -15 -7 3 -4 -1 6 -9 11 -9 16 -16 12
-16 -5 0 -3 -7 4 -15 7 -8 16 -13 20 -10 5 3 6 -4 3 -15 -5 -20 -33 -29 -33
-10 0 6 5 10 12 10 15 0 0 15 -15 15 -7 0 -11 9 -9 19 2 11 -1 15 -7 11 -6 -3
-11 -1 -11 6 0 7 -3 9 -6 6 -4 -4 1 -18 10 -31 10 -16 12 -27 6 -31 -6 -4 -7
-11 -4 -17 4 -7 2 -8 -4 -4 -7 4 -12 2 -12 -4 0 -6 -5 -8 -12 -4 -9 6 -9 9 0
12 7 2 12 8 12 14 0 7 -4 7 -12 0 -7 -5 -25 -8 -39 -7 -17 2 -26 -2 -26 -11 0
-8 3 -14 7 -14 3 0 15 -7 26 -16 19 -15 19 -15 -1 -6 -14 8 -23 6 -33 -6 -7
-10 -11 -12 -8 -5 4 6 -3 15 -15 18 -13 4 -18 12 -15 21 3 8 2 13 -3 10 -14
-9 -26 14 -44 81 -15 56 -15 80 -1 151 5 27 20 28 34 2z m-370 -72 c0 -11 -12
-10 -30 2 -12 7 -10 9 8 7 12 0 22 -5 22 -9z m193 -25 c-7 -2 -19 -2 -25 0 -7
3 -2 5 12 5 14 0 19 -2 13 -5z m846 -90 c0 -5 -7 -24 -14 -43 -13 -33 -14 -34
-14 -8 -1 32 8 58 20 58 5 0 9 -3 8 -7z m-569 -53 c0 -5 -8 -10 -17 -10 -15 0
-16 2 -3 10 19 12 20 12 20 0z m161 -10 c13 -8 19 -7 19 0 0 6 5 8 10 5 12 -7
13 -45 2 -62 -4 -6 -22 -13 -39 -16 -33 -5 -37 -1 -36 40 1 7 -3 10 -8 7 -5
-3 -9 -1 -9 5 0 5 8 15 18 20 21 13 20 13 43 1z m333 -35 c8 -22 -14 -65 -35
-65 -9 0 -24 -3 -33 -6 -24 -9 -20 30 7 60 25 29 52 34 61 11z m-1179 -161
c12 -8 26 -10 34 -5 18 12 41 3 41 -15 0 -8 9 -14 19 -14 11 0 23 -5 26 -10 4
-6 10 -8 15 -5 5 3 24 -2 41 -11 23 -11 34 -13 39 -5 8 15 40 3 40 -14 0 -7 6
-16 13 -18 6 -3 2 -6 -11 -6 -16 -1 -21 -5 -16 -13 5 -9 2 -9 -9 1 -15 12 -17
11 -17 -3 0 -9 -4 -16 -10 -16 -5 0 -9 5 -7 11 1 6 -11 13 -26 14 -16 2 -35 9
-42 15 -8 7 -19 9 -25 5 -5 -3 -10 -2 -10 4 0 5 -9 8 -19 6 -11 -2 -36 5 -56
15 -20 10 -50 22 -67 25 -16 4 -27 12 -25 18 2 7 -3 18 -12 24 -13 11 -10 13
24 11 22 -1 49 -7 60 -14z m-1930 -104 c-3 -5 -12 -10 -18 -10 -7 0 -6 4 3 10
19 12 23 12 15 0z m2885 -44 c0 -17 -14 -29 -23 -20 -8 8 3 34 14 34 5 0 9 -6
9 -14z m-974 -73 c-3 -3 -1 -14 5 -24 7 -15 6 -17 -5 -13 -9 3 -19 -4 -27 -18
-12 -22 -11 -22 6 -8 12 10 16 10 11 2 -4 -7 -3 -19 3 -26 8 -9 5 -18 -10 -34
-21 -23 -56 -31 -43 -10 5 7 2 9 -9 5 -11 -4 -14 -2 -10 9 4 10 -2 17 -16 21
-11 3 -21 10 -22 17 0 6 -4 2 -8 -9 -7 -18 -9 -18 -25 8 -17 24 -17 28 -2 43
14 14 19 14 33 2 14 -11 16 -11 8 1 -6 11 -4 13 8 8 10 -4 17 -1 17 5 0 6 3 9
6 5 4 -3 12 -1 18 6 7 7 25 13 40 13 15 1 25 0 22 -3z m1630 -84 c12 -25 10
-39 -7 -39 -3 0 -9 8 -12 18 -4 9 -13 32 -22 51 l-16 35 22 -20 c11 -10 27
-31 35 -45z m-1596 7 c0 -8 -5 -18 -11 -22 -8 -5 -8 -9 1 -14 8 -5 4 -9 -10
-13 -20 -5 -21 -4 -5 19 9 14 11 24 5 24 -6 0 -8 5 -5 10 9 15 25 12 25 -4z
m-2330 -96 c0 -11 -4 -20 -9 -20 -5 0 -7 9 -4 20 3 11 7 20 9 20 2 0 4 -9 4
-20z m340 0 c-8 -5 -18 -6 -24 -3 -5 4 -1 10 10 13 24 9 34 2 14 -10z m-282
-80 c-1 -17 2 -33 5 -37 4 -3 7 1 7 11 0 9 5 14 10 11 16 -10 11 -33 -6 -31
-9 1 -23 17 -30 35 -17 41 -17 41 0 41 10 0 14 -10 14 -30z m47 10 c-3 -5 -10
-10 -16 -10 -5 0 -9 5 -9 10 0 6 7 10 16 10 8 0 12 -4 9 -10z m3779 -135 c3
-8 1 -15 -4 -15 -6 0 -10 7 -10 15 0 8 2 15 4 15 2 0 6 -7 10 -15z m-1834
-139 c0 -2 -7 -6 -15 -10 -8 -3 -15 -1 -15 4 0 6 7 10 15 10 8 0 15 -2 15 -4z
m26 -28 c4 -7 3 -8 -4 -4 -7 4 -12 1 -13 -6 0 -7 -1 -48 -2 -90 -1 -52 -5 -74
-11 -68 -14 14 -12 118 2 153 13 30 17 33 28 15z m69 -30 c-2 -24 -2 -35 1
-25 3 10 15 17 31 17 21 0 24 -2 13 -15 -10 -12 -10 -15 3 -15 9 0 20 8 26 17
11 21 19 16 24 -18 5 -31 -11 -67 -35 -74 -34 -11 -18 -25 22 -20 25 3 40 1
40 -5 0 -6 6 -8 13 -4 9 6 9 4 -1 -8 -13 -17 -56 -32 -46 -17 3 5 0 9 -5 9 -6
0 -11 -7 -11 -16 0 -11 -6 -14 -20 -9 -15 5 -20 2 -20 -13 0 -10 -7 -19 -15
-19 -13 0 -13 3 0 23 19 29 19 31 -4 37 -46 12 -69 121 -36 171 10 14 19 26
21 26 2 0 2 -19 -1 -42z m-1921 23 c4 -5 -3 -7 -14 -4 -23 6 -26 13 -6 13 8 0
17 -4 20 -9z m1972 -18 c-7 -7 -26 7 -26 19 0 6 6 6 15 -2 9 -7 13 -15 11 -17z
m66 -25 c-7 -7 -12 -8 -12 -2 0 6 3 14 7 17 3 4 9 5 12 2 2 -3 -1 -11 -7 -17z
m-242 2 c0 -5 -2 -10 -4 -10 -3 0 -8 5 -11 10 -3 6 -1 10 4 10 6 0 11 -4 11
-10z m-3 -52 c-3 -7 -5 -2 -5 12 0 14 2 19 5 13 2 -7 2 -19 0 -25z m-1665 -48
c21 0 38 -4 38 -9 0 -5 17 -15 38 -22 20 -6 41 -14 45 -16 9 -5 -78 -93 -92
-93 -4 0 -22 5 -39 11 -33 11 -33 11 -46 113 -4 30 -2 36 6 28 7 -7 29 -12 50
-12z m2048 0 c0 -5 -5 -10 -11 -10 -5 0 -7 5 -4 10 3 6 8 10 11 10 2 0 4 -4 4
-10z m1364 -45 c-4 -8 -11 -15 -16 -15 -6 0 -5 6 2 15 7 8 14 15 16 15 2 0 1
-7 -2 -15z m-2107 -41 c-3 -3 -12 -4 -19 -1 -8 3 -5 6 6 6 11 1 17 -2 13 -5z
m2007 -9 c-5 -11 -2 -13 10 -9 9 3 13 10 10 15 -6 11 -1 11 20 3 24 -9 19 -24
-6 -24 -21 -1 -22 -2 -5 -14 16 -12 15 -13 -8 -13 -13 0 -23 3 -20 7 3 4 -3 7
-13 6 -11 0 -18 7 -20 22 -3 17 2 22 17 22 14 0 19 -5 15 -15z m106 -3 c0 -11
-8 -18 -22 -19 -13 0 -17 1 -10 4 6 3 12 11 12 19 0 8 5 14 10 14 6 0 10 -8
10 -18z m-980 -61 c25 -33 29 -41 13 -33 -22 12 -53 54 -53 73 0 7 1 10 3 8 2
-2 18 -24 37 -48z m790 38 c0 -5 5 -7 12 -3 7 4 8 3 4 -5 -6 -9 -11 -9 -22 0
-17 14 -18 19 -4 19 6 0 10 -5 10 -11z m-95 -29 c3 -6 -4 -10 -17 -10 -18 0
-20 2 -8 10 19 12 18 12 25 0z m-3132 -66 c22 -4 37 -12 37 -20 0 -8 4 -14 9
-14 5 0 4 -11 -2 -25 -9 -19 -17 -24 -32 -20 -11 2 -31 5 -45 5 -28 1 -65 43
-56 66 6 15 30 17 89 8z m1270 -14 c-3 -12 -8 -19 -11 -16 -5 6 5 36 12 36 2
0 2 -9 -1 -20z m-30 -40 c-6 -22 -21 -35 -30 -27 -2 3 -2 15 2 26 8 28 35 28
28 1z m-68 -40 c4 -6 12 -7 18 -4 7 4 2 -3 -11 -15 -29 -28 -58 -22 -42 9 12
22 25 26 35 10z m-235 -169 c0 -5 -11 -8 -25 -6 -38 4 -43 15 -7 15 18 0 32
-4 32 -9z"/>
<path d="M3473 3925 c0 -8 4 -12 9 -9 5 3 6 10 3 15 -9 13 -12 11 -12 -6z"/>
<path d="M3750 3751 c0 -5 7 -11 15 -15 8 -3 15 -1 15 3 0 5 -7 11 -15 15 -8
3 -15 1 -15 -3z"/>
<path d="M3135 3160 c-8 -13 15 -24 27 -12 6 6 4 11 -6 15 -8 3 -18 2 -21 -3z"/>
<path d="M3111 3135 c0 -5 3 -16 8 -23 7 -11 9 -10 14 3 4 9 3 14 -2 10 -5 -3
-12 1 -14 7 -3 7 -6 9 -6 3z"/>
<path d="M3170 5660 l-35 -7 38 -2 c20 0 37 4 37 9 0 6 -1 9 -2 9 -2 -1 -19
-5 -38 -9z"/>
<path d="M2555 5360 c-3 -5 -2 -10 4 -10 5 0 13 5 16 10 3 6 2 10 -4 10 -5 0
-13 -4 -16 -10z"/>
<path d="M2340 5270 c8 -5 24 -9 35 -9 l20 0 -20 9 c-11 5 -27 9 -35 9 -13 1
-13 0 0 -9z"/>
<path d="M2231 5191 c-13 -11 -28 -22 -33 -23 -6 -2 -9 -9 -7 -16 2 -7 19 2
42 23 39 36 37 50 -2 16z"/>
<path d="M2032 5070 c0 -14 2 -19 5 -12 2 6 2 18 0 25 -3 6 -5 1 -5 -13z"/>
<path d="M2047 5003 c-10 -9 -9 -23 2 -23 5 0 11 7 15 15 5 15 -5 20 -17 8z"/>
<path d="M1910 4960 c-12 -8 -11 -10 8 -10 12 0 22 5 22 10 0 13 -11 13 -30 0z"/>
<path d="M1841 4864 c0 -11 3 -14 6 -6 3 7 2 16 -1 19 -3 4 -6 -2 -5 -13z"/>
<path d="M1830 4796 c0 -7 -6 -19 -14 -25 -11 -10 -16 -9 -24 5 -7 13 -13 14
-28 6 -18 -11 -18 -11 4 -12 12 0 21 -6 20 -12 -2 -7 7 -14 20 -16 17 -3 22 1
22 20 0 18 2 20 10 8 7 -11 10 -12 10 -2 0 9 7 11 21 7 16 -5 20 -3 17 6 -3 8
-15 13 -27 12 -13 -2 -20 1 -16 7 3 6 1 10 -4 10 -6 0 -11 -6 -11 -14z"/>
<path d="M1750 4751 c0 -5 5 -13 10 -16 6 -3 10 -2 10 4 0 5 -4 13 -10 16 -5
3 -10 2 -10 -4z"/>
<path d="M1560 4639 c-12 -9 -12 -10 3 -5 10 3 28 1 40 -6 20 -10 21 -10 8 5
-16 20 -30 21 -51 6z"/>
<path d="M1636 4604 c-3 -7 -2 -15 1 -18 7 -7 43 12 43 24 0 13 -39 8 -44 -6z"/>
<path d="M1585 4600 c-3 -6 1 -7 9 -4 18 7 21 14 7 14 -6 0 -13 -4 -16 -10z"/>
<path d="M4615 4039 c-10 -15 3 -25 16 -12 7 7 7 13 1 17 -6 3 -14 1 -17 -5z"/>
<path d="M4705 3870 c-8 -13 5 -13 25 0 13 8 13 10 -2 10 -9 0 -20 -4 -23 -10z"/>
<path d="M1286 3594 c-8 -21 -8 -24 3 -24 5 0 11 9 14 20 6 24 -8 27 -17 4z"/>
<path d="M1270 3538 c0 -19 2 -20 10 -8 13 19 13 30 0 30 -5 0 -10 -10 -10
-22z"/>
<path d="M4697 3464 c-4 -4 -7 -19 -6 -33 l0 -26 10 24 c10 26 8 47 -4 35z"/>
<path d="M1225 3430 c-3 -5 -1 -10 4 -10 6 0 11 5 11 10 0 6 -2 10 -4 10 -3 0
-8 -4 -11 -10z"/>
<path d="M1000 3400 c0 -6 7 -10 15 -10 8 0 15 2 15 4 0 2 -7 6 -15 10 -8 3
-15 1 -15 -4z"/>
<path d="M4680 3396 c0 -4 7 -14 15 -22 8 -9 15 -11 15 -6 0 5 -7 15 -15 22
-8 7 -15 9 -15 6z"/>
<path d="M1190 3350 c0 -5 5 -10 11 -10 5 0 7 5 4 10 -3 6 -8 10 -11 10 -2 0
-4 -4 -4 -10z"/>
<path d="M1248 3353 c7 -3 16 -2 19 1 4 3 -2 6 -13 5 -11 0 -14 -3 -6 -6z"/>
<path d="M1220 3329 c0 -5 5 -7 10 -4 6 3 10 8 10 11 0 2 -4 4 -10 4 -5 0 -10
-5 -10 -11z"/>
<path d="M1161 3256 c-7 -8 -21 -12 -34 -9 -21 5 -22 5 -2 -10 17 -13 22 -13
42 2 12 9 23 19 23 24 0 12 -17 8 -29 -7z"/>
<path d="M4850 3006 c0 -9 5 -16 10 -16 6 0 10 4 10 9 0 6 -4 13 -10 16 -5 3
-10 -1 -10 -9z"/>
<path d="M2990 2430 c0 -6 4 -9 9 -6 5 4 12 1 14 -4 3 -6 4 -5 3 2 -3 15 -26
23 -26 8z"/>
<path d="M2678 2313 c6 -2 18 -2 25 0 6 3 1 5 -13 5 -14 0 -19 -2 -12 -5z"/>
<path d="M2585 2290 c-3 -6 1 -7 9 -4 18 7 21 14 7 14 -6 0 -13 -4 -16 -10z"/>
<path d="M5084 2177 c-33 -13 -154 -129 -154 -148 0 -8 4 -8 16 1 19 16 64 22
64 9 0 -6 -5 -7 -11 -3 -7 4 -10 1 -7 -7 3 -8 13 -13 23 -11 11 2 14 -1 10 -8
-5 -9 -1 -10 16 -5 13 4 21 4 18 1 -8 -9 39 -61 47 -53 3 3 19 1 35 -5 30 -10
31 -28 1 -28 -15 0 -15 2 -2 10 12 8 11 10 -7 10 -15 0 -23 -6 -23 -16 0 -14
8 -16 45 -11 38 4 46 2 44 -12 -3 -38 0 -43 31 -36 23 5 30 3 30 -9 0 -9 4
-16 9 -16 5 0 15 -16 21 -36 9 -25 21 -39 41 -46 27 -9 41 -38 19 -38 -5 0
-10 -7 -10 -15 0 -8 5 -15 11 -15 5 0 7 -4 4 -10 -3 -5 -1 -18 5 -29 7 -15 6
-23 -6 -35 -14 -15 -14 -16 1 -16 12 0 15 -6 10 -20 -4 -12 -1 -28 6 -36 10
-13 10 -17 -2 -25 -12 -7 -11 -9 2 -9 9 0 22 -7 29 -15 15 -18 -1 -21 -31 -5
-11 6 -19 7 -19 2 0 -6 10 -13 23 -17 21 -8 21 -8 -6 -12 -30 -5 -28 -23 3
-23 13 0 17 -5 13 -20 -3 -11 -9 -18 -13 -15 -4 3 -11 -2 -14 -11 -3 -8 -2
-12 4 -9 6 3 10 3 11 -2 0 -4 3 -21 5 -38 11 -63 11 -70 0 -84 -9 -12 -8 -14
5 -9 11 4 21 -3 33 -23 9 -16 22 -29 28 -29 5 0 7 -7 4 -15 -3 -9 1 -18 9 -21
8 -4 15 -16 15 -28 0 -17 2 -18 11 -6 8 12 9 11 7 -5 -2 -11 3 -26 12 -33 13
-11 13 -14 -7 -31 l-22 -18 35 -17 c32 -15 35 -19 29 -46 -3 -16 -2 -38 4 -49
12 -21 5 -54 -9 -46 -5 3 -11 1 -14 -4 -4 -5 9 -15 27 -22 29 -10 33 -15 29
-40 -2 -16 1 -35 7 -43 6 -7 8 -16 4 -20 -4 -3 -12 6 -18 20 -10 25 -11 24
-10 -17 0 -24 4 -50 9 -58 6 -10 5 -16 -2 -19 -7 -2 -12 -8 -12 -14 0 -6 6 -8
13 -5 9 3 11 -7 9 -38 -3 -30 1 -47 14 -59 14 -14 19 -15 26 -4 7 9 8 8 4 -6
-4 -11 -1 -23 6 -29 10 -7 9 -8 -3 -4 -12 4 -16 -3 -17 -29 -1 -30 1 -34 26
-35 26 -1 25 -1 -6 -10 -23 -7 -32 -15 -28 -25 3 -8 -1 -14 -9 -14 -9 0 -12 6
-9 15 4 9 0 15 -8 15 -23 0 -27 -10 -16 -36 14 -31 31 -30 48 1 7 14 20 25 27
25 8 0 11 -5 7 -12 -5 -7 -2 -9 7 -6 10 4 15 -1 17 -15 1 -17 -1 -19 -8 -7 -9
13 -10 13 -10 0 0 -13 -1 -13 -10 0 -9 13 -10 13 -11 0 0 -8 -2 -23 -4 -32 -2
-10 0 -18 5 -18 4 0 11 -7 14 -16 4 -12 2 -15 -9 -10 -8 3 -15 1 -15 -5 0 -6
-5 -7 -12 -3 -7 5 -8 3 -3 -5 4 -7 18 -11 31 -8 18 3 24 0 24 -14 0 -10 -4
-21 -10 -24 -5 -3 -10 1 -10 9 0 9 -7 16 -15 16 -18 0 -20 -16 -4 -26 8 -4 7
-9 -2 -15 -12 -8 -11 -11 1 -20 13 -9 12 -10 -2 -5 -14 4 -18 0 -18 -19 0 -24
9 -29 47 -28 8 0 9 -7 2 -25 -5 -13 -7 -33 -3 -44 5 -17 3 -19 -15 -13 -15 4
-21 2 -21 -9 0 -9 -6 -13 -14 -10 -8 3 -17 1 -21 -5 -3 -6 -1 -11 5 -11 6 0
10 -10 8 -22 -3 -23 -1 -23 130 -26 72 -1 132 1 132 5 0 25 -64 518 -81 627
-18 120 -79 407 -112 536 -79 303 -147 527 -188 625 -49 115 -150 283 -198
330 -32 32 -40 45 -28 45 9 0 17 4 17 8 0 13 -133 12 -166 -1z m142 -304 c-10
-10 -19 5 -10 18 6 11 8 11 12 0 2 -7 1 -15 -2 -18z m331 -1005 c-3 -8 -6 -5
-6 6 -1 11 2 17 5 13 3 -3 4 -12 1 -19z m49 -263 c-4 -14 -11 -25 -16 -25 -13
0 -13 16 1 42 14 26 23 16 15 -17z m53 -258 c0 -9 -2 -8 -6 1 -2 6 -10 9 -15
6 -7 -4 -8 -2 -4 5 9 13 26 5 25 -12z"/>
<path d="M2465 2150 c3 -5 8 -10 11 -10 2 0 4 5 4 10 0 6 -5 10 -11 10 -5 0
-7 -4 -4 -10z"/>
<path d="M2291 2054 c0 -11 3 -14 6 -6 3 7 2 16 -1 19 -3 4 -6 -2 -5 -13z"/>
<path d="M5260 1805 c0 -8 5 -15 10 -15 6 0 10 7 10 15 0 8 -4 15 -10 15 -5 0
-10 -7 -10 -15z"/>
<path d="M915 1427 c-75 -40 -164 -127 -193 -190 -43 -93 -53 -154 -62 -397
-5 -129 -16 -293 -24 -365 -26 -233 -29 -285 -15 -285 7 0 10 2 7 5 -6 7 33
147 63 225 79 204 152 367 216 480 l42 75 -9 75 c-20 165 -5 299 40 378 24 41
13 41 -65 -1z"/>
<path d="M5345 1309 c-4 -5 -4 -13 -1 -16 3 -4 6 0 6 8 0 11 2 11 10 -1 6 -9
10 -10 10 -3 0 17 -17 25 -25 12z"/>
<path d="M5460 1076 c0 -9 7 -16 16 -16 9 0 14 5 12 12 -6 18 -28 21 -28 4z"/>
<path d="M4552 923 c-15 -142 -4 -320 27 -437 12 -44 21 -96 21 -117 0 -20 9
-58 19 -85 53 -133 72 -257 42 -274 -11 -7 1 -9 43 -10 l59 0 -6 65 c-3 35
-15 81 -25 102 -11 21 -19 51 -18 66 1 16 -2 31 -7 34 -5 3 -4 9 3 13 9 5 9
13 2 27 -6 11 -14 89 -18 174 -10 225 -10 227 -19 317 -5 56 -11 79 -17 70 -7
-9 -8 -4 -5 15 2 15 0 28 -4 28 -5 1 -15 2 -21 3 -7 1 -13 14 -13 29 1 22 -3
27 -17 24 -9 -3 -17 -2 -16 2 3 25 -3 71 -10 71 -5 0 -14 -53 -20 -117z"/>
<path d="M5500 990 c0 -5 5 -10 11 -10 5 0 7 5 4 10 -3 6 -8 10 -11 10 -2 0
-4 -4 -4 -10z"/>
<path d="M5585 360 c3 -5 8 -10 11 -10 2 0 4 5 4 10 0 6 -5 10 -11 10 -5 0 -7
-4 -4 -10z"/>
<path d="M5545 150 c3 -5 8 -10 11 -10 2 0 4 5 4 10 0 6 -5 10 -11 10 -5 0 -7
-4 -4 -10z"/>
<path d="M5538 33 c7 -3 16 -2 19 1 4 3 -2 6 -13 5 -11 0 -14 -3 -6 -6z"/>
<path d="M5488 3 c7 -3 16 -2 19 1 4 3 -2 6 -13 5 -11 0 -14 -3 -6 -6z"/>
</g>
</svg>
