<?xml version="1.0" encoding="UTF-8" standalone="no"?>
<svg
   xmlns:dc="http://purl.org/dc/elements/1.1/"
   xmlns:cc="http://creativecommons.org/ns#"
   xmlns:rdf="http://www.w3.org/1999/02/22-rdf-syntax-ns#"
   xmlns:svg="http://www.w3.org/2000/svg"
   xmlns="http://www.w3.org/2000/svg"
   viewBox="0 0 96 96"
   height="96"
   width="96"
   xml:space="preserve"
   id="svg2"
   version="1.1"><metadata
     id="metadata8"><rdf:RDF><cc:Work
         rdf:about=""><dc:format>image/svg+xml</dc:format><dc:type
           rdf:resource="http://purl.org/dc/dcmitype/StillImage" /></cc:Work></rdf:RDF></metadata><defs
     id="defs6" /><g
     transform="matrix(1.3333333,0,0,-1.3333333,0,96)"
     id="main"><g
       transform="scale(0.1)"
       id="g12"><path
         id="path14"
         style="fill-opacity:1;fill-rule:nonzero;stroke:none"
         d="M 613.664,106.355 H 505.422 v 187.817 c 0,55.418 -23.559,72.508 -53.945,72.508 -32.114,0 -63.61,-24.176 -63.61,-73.891 V 106.355 H 279.625 v 343.872 h 104.102 v -47.641 h 1.378 c 10.473,21.168 47.036,57.309 102.883,57.309 60.403,0 125.676,-35.829 125.676,-140.864 z M 160.48,498.137 c -34.468,0 -62.4058,26.23 -62.4058,62.129 0,35.898 27.9378,62.164 62.4058,62.164 34.461,0 62.407,-26.266 62.407,-62.164 0,-35.899 -27.946,-62.129 -62.407,-62.129 z m 54.122,-391.52 H 106.359 V 450.492 H 214.602 Z M 666.871,720 H 53.1523 C 23.7969,720 0,696.203 0,666.848 V 53.1484 C 0,23.7969 23.7969,0 53.1523,0 H 666.871 c 29.352,0 53.149,23.7969 53.149,53.1484 V 666.848 c 0,29.355 -23.797,53.152 -53.149,53.152" /></g></g></svg>